<svg width="67" height="67" viewBox="0 0 67 67" fill="none" xmlns="http://www.w3.org/2000/svg">
<path d="M16.8401 8.33115V16.6624H8.50889V8.33115H16.8401ZM4.34326 4.16553V20.828H21.0058V4.16553H4.34326ZM37.6683 14.5796V22.9108H29.337V14.5796H37.6683ZM25.1714 10.414V27.0765H41.8339V10.414H25.1714ZM16.8401 33.3249V41.6562H8.50889V33.3249H16.8401ZM4.34326 29.1593V45.8218H21.0058V29.1593H4.34326Z" fill="white"/>
<path d="M45.9996 20.8281V33.325H33.5027V45.8219H21.0059V62.4844H62.6621V20.8281H45.9996ZM37.6684 37.4906H45.9996V45.8219H37.6684V37.4906ZM33.5027 58.3188H25.1715V49.9875H33.5027V58.3188ZM45.9996 58.3188H37.6684V49.9875H45.9996V58.3188ZM58.4965 58.3188H50.1652V49.9875H58.4965V58.3188ZM58.4965 45.8219H50.1652V37.4906H58.4965V45.8219ZM50.1652 33.325V24.9938H58.4965V33.325H50.1652Z" fill="white"/>
</svg>
