<svg width="68" height="67" viewBox="0 0 68 67" fill="none" xmlns="http://www.w3.org/2000/svg">
<path d="M25.5825 36.1022C31.7174 36.1022 36.6908 31.1288 36.6908 24.9938C36.6908 18.8589 31.7174 13.8855 25.5825 13.8855C19.4475 13.8855 14.4741 18.8589 14.4741 24.9938C14.4741 31.1288 19.4475 36.1022 25.5825 36.1022Z" stroke="white" stroke-width="2" stroke-linecap="round" stroke-linejoin="round"/>
<path d="M45.0222 52.7647C45.0222 43.5614 36.3189 36.1022 25.5827 36.1022C14.8464 36.1022 6.14307 43.5614 6.14307 52.7647M42.2452 36.1022C44.1013 36.1021 45.9279 35.6368 47.5579 34.749C49.188 33.8611 50.5696 32.579 51.5764 31.0197C52.5833 29.4603 53.1834 27.6735 53.3219 25.8226C53.4604 23.9716 53.1328 22.1154 52.3692 20.4236C51.6055 18.7318 50.4301 17.2583 48.9502 16.1378C47.4704 15.0173 45.7334 14.2855 43.898 14.0092C42.0625 13.733 40.187 13.921 38.4429 14.5563C36.6989 15.1915 35.1418 16.2537 33.9139 17.6457" stroke="white" stroke-width="2" stroke-linecap="round" stroke-linejoin="round"/>
<path d="M61.6849 52.7646C61.6849 43.5613 52.9815 36.1021 42.2453 36.1021C40.0042 36.1021 36.4051 35.2884 33.9141 32.6724" stroke="white" stroke-width="2" stroke-linecap="round" stroke-linejoin="round"/>
</svg>
