<svg width="69" height="33" viewBox="0 0 69 33" fill="none" xmlns="http://www.w3.org/2000/svg">
<g filter="url(#filter0_d_213_66)">
<path d="M4 0V1.70937H15.8737V0H4ZM17.5573 0V1.70937H34.4756C34.4756 1.70937 32.7463 0 30.4587 0H17.5573ZM37.7971 0V1.70937H48.0328L47.4228 0H37.7971ZM55.3712 0L54.7611 1.70937H64.9054V0H55.3712ZM4 3.325V5.0375H15.8737V3.325H4ZM17.5573 3.32812V5.0375H36.4367C36.4367 5.0375 36.2202 3.72187 35.8359 3.32812H17.5573ZM37.7971 3.32812V5.0375H49.1553L48.591 3.32812H37.7971ZM54.1572 3.32812L53.593 5.0375H64.9085V3.32812H54.1572ZM7.41295 6.65625V8.36875H12.5552V6.65625H7.41295ZM20.9671 6.65625V8.36875H26.1125V6.65625H20.9671ZM31.1115 6.65625V8.36875H36.2537C36.2537 8.36875 36.5801 7.4625 36.5801 6.65625H31.1115ZM41.207 6.65625V8.36875H50.3264L49.7164 6.65625H41.207ZM53.0348 6.65625L52.4249 8.36875H61.5871V6.65625H53.0348ZM7.416 9.98125V11.6906H12.5583V9.98125H7.416ZM20.9702 9.98125V11.6906H34.1066C34.1066 11.6906 35.2045 10.8156 35.5553 9.98125H20.9702ZM41.21 9.98125V11.6906H46.3523V10.7406L46.6786 11.6937H56.1001L56.4478 10.7406V11.6937H61.5901V9.98125H51.9368L51.4244 11.4312L50.9121 9.98125H41.21ZM7.416 13.3125V15.0219H12.5583V13.3125H7.416ZM20.9702 13.3125V15.0219H35.5553C35.2045 14.1906 34.1035 13.3125 34.1035 13.3125H20.9702ZM41.21 13.3125V15.0219H46.3523V13.3125H41.21ZM47.2856 13.3125L47.9078 15.0219H54.9716L55.5633 13.3125H47.2856ZM56.4478 13.3125V15.0219H61.5901V13.3125H56.4478ZM7.416 16.6344V18.3438H12.5583V16.6344H7.416ZM20.9702 16.6344V18.3438H26.1125V16.6344H20.9702ZM31.1145 16.6344V18.3438H36.5831C36.557 17.7606 36.447 17.1846 36.2568 16.6344H31.1145ZM41.21 16.6344V18.3438H46.3523V16.6344H41.21ZM48.4538 16.6344L49.0577 18.3438H53.7913L54.4012 16.6344H48.4538ZM56.4478 16.6344V18.3438H61.5901V16.6344H56.4478ZM4.0915 19.9594V21.675H15.9651V19.9594H4.0915ZM17.5573 19.9594V21.675H35.8359C36.2202 21.2812 36.4398 19.9594 36.4398 19.9594H17.5573ZM37.8885 19.9594V21.675H46.3493V19.9594H37.8885ZM49.6219 19.9594L50.241 21.675H52.6506L53.2301 19.9594H49.6219ZM56.4447 19.9594V21.675H65V19.9594H56.4447ZM4.0915 23.2906V25H15.9651V23.2906H4.0915ZM17.5573 23.2906V24.9969H30.4587C32.7463 24.9969 34.4756 23.2906 34.4756 23.2906H17.5573ZM37.8885 23.2906V25H46.3493V23.2906H37.8885ZM50.7962 23.2906L51.3909 24.9969H51.4946L52.0985 23.2906H50.7962ZM56.4447 23.2906V25H65V23.2906H56.4447Z" fill="white"/>
</g>
<defs>
<filter id="filter0_d_213_66" x="0" y="0" width="69" height="33" filterUnits="userSpaceOnUse" color-interpolation-filters="sRGB">
<feFlood flood-opacity="0" result="BackgroundImageFix"/>
<feColorMatrix in="SourceAlpha" type="matrix" values="0 0 0 0 0 0 0 0 0 0 0 0 0 0 0 0 0 0 127 0" result="hardAlpha"/>
<feOffset dy="4"/>
<feGaussianBlur stdDeviation="2"/>
<feComposite in2="hardAlpha" operator="out"/>
<feColorMatrix type="matrix" values="0 0 0 0 0 0 0 0 0 0 0 0 0 0 0 0 0 0 0.25 0"/>
<feBlend mode="normal" in2="BackgroundImageFix" result="effect1_dropShadow_213_66"/>
<feBlend mode="normal" in="SourceGraphic" in2="effect1_dropShadow_213_66" result="shape"/>
</filter>
</defs>
</svg>
