<svg width="46" height="46" viewBox="0 0 46 46" fill="none" xmlns="http://www.w3.org/2000/svg">
<path d="M32.6796 38.87C30.8012 40.6908 28.7504 40.4033 26.7762 39.5408C24.6871 38.6592 22.7704 38.6208 20.5662 39.5408C17.8062 40.7292 16.3496 40.3842 14.7012 38.87C5.3479 29.2292 6.7279 14.5475 17.3462 14.0108C19.9337 14.145 21.7354 15.4292 23.2496 15.5442C25.5112 15.0842 27.6771 13.7617 30.0921 13.9342C32.9862 14.1642 35.1712 15.3142 36.6087 17.3842C30.6287 20.9683 32.0471 28.8458 37.5287 31.05C36.4362 33.925 35.0179 36.7808 32.6604 38.8892L32.6796 38.87ZM23.0579 13.8958C22.7704 9.62167 26.2396 6.095 30.2262 5.75C30.7821 10.695 25.7412 14.375 23.0579 13.8958Z" fill="white"/>
</svg>
