<svg width="128" height="28" viewBox="0 0 128 28" fill="none" xmlns="http://www.w3.org/2000/svg">
<path d="M128 12.5869V10.2948H125.204V6.73162L125.11 6.7609L122.485 7.57901L122.433 7.59504V10.2948H118.289V8.7909C118.289 8.09064 118.443 7.55457 118.746 7.19744C119.047 6.84413 119.477 6.66468 120.026 6.66468C120.421 6.66468 120.83 6.75937 121.241 6.94595L121.344 6.99279V4.57919L121.296 4.56137C120.912 4.42061 120.39 4.3501 119.743 4.3501C118.928 4.3501 118.187 4.53057 117.541 4.88872C116.895 5.24686 116.386 5.75901 116.03 6.40988C115.675 7.05999 115.495 7.81064 115.495 8.64148V10.295H113.548V12.5872H115.495V22.2429H118.289V12.5869H122.433V18.723C122.433 21.2501 123.604 22.531 125.913 22.531C126.312 22.5286 126.709 22.4836 127.099 22.3966C127.514 22.3057 127.797 22.2149 127.963 22.1179L128 22.0957V19.7824L127.886 19.859C127.735 19.9621 127.546 20.0461 127.324 20.1085C127.102 20.1721 126.916 20.2042 126.772 20.2042C126.231 20.2042 125.831 20.0558 125.583 19.7628C125.332 19.4676 125.204 18.9506 125.204 18.2277V12.5869H128ZM107.308 20.2045C106.294 20.2045 105.494 19.8618 104.93 19.1876C104.364 18.5094 104.076 17.5432 104.076 16.315C104.076 15.0481 104.364 14.0567 104.931 13.3666C105.495 12.6814 106.287 12.3334 107.285 12.3334C108.254 12.3334 109.025 12.6656 109.578 13.3216C110.133 13.9806 110.415 14.9641 110.415 16.2458C110.415 17.5432 110.15 18.54 109.627 19.2066C109.108 19.8685 108.328 20.2045 107.308 20.2045ZM107.432 10.0069C105.497 10.0069 103.96 10.5842 102.865 11.7228C101.77 12.8616 101.214 14.4372 101.214 16.4069C101.214 18.2776 101.756 19.7822 102.825 20.8785C103.894 21.9748 105.349 22.5305 107.149 22.5305C109.025 22.5305 110.531 21.9453 111.627 20.7909C112.722 19.6378 113.277 18.077 113.277 16.1531C113.277 14.2534 112.756 12.7376 111.729 11.6487C110.701 10.5592 109.255 10.0069 107.432 10.0069ZM96.7089 10.0069C95.3927 10.0069 94.3039 10.3497 93.4722 11.0256C92.6357 11.7054 92.2112 12.5974 92.2112 13.6764C92.2112 14.2372 92.3027 14.7353 92.4832 15.1578C92.6644 15.5819 92.9452 15.9551 93.3182 16.2684C93.6882 16.5792 94.2594 16.9048 95.0167 17.2357C95.6529 17.5025 96.1277 17.7282 96.4292 17.9059C96.7239 18.0803 96.9332 18.2554 97.0512 18.426C97.1659 18.5927 97.2242 18.8213 97.2242 19.103C97.2242 19.9059 96.6339 20.2964 95.4192 20.2964C94.9684 20.2964 94.4544 20.2006 93.8914 20.0118C93.3325 19.8256 92.805 19.5532 92.3272 19.2041L92.2112 19.1196V21.8585L92.2537 21.8789C92.6492 22.0647 93.1477 22.2212 93.7352 22.3447C94.3217 22.4679 94.8542 22.5308 95.3172 22.5308C96.7454 22.5308 97.8957 22.1863 98.7347 21.5065C99.5797 20.8217 100.008 19.9092 100.008 18.7925C100.008 17.9874 99.7772 17.2965 99.3227 16.7396C98.8719 16.1872 98.0889 15.6799 96.9969 15.2317C96.1269 14.8761 95.5694 14.581 95.3397 14.3545C95.1179 14.1356 95.0054 13.8261 95.0054 13.4343C95.0054 13.0866 95.1444 12.8084 95.4297 12.5829C95.7172 12.3563 96.1172 12.241 96.6187 12.241C97.0844 12.241 97.5607 12.3158 98.0344 12.4625C98.5079 12.6093 98.9234 12.8061 99.2707 13.0464L99.3847 13.1258V10.5274L99.3409 10.5083C99.0209 10.3683 98.5984 10.2487 98.0859 10.152C97.5749 10.0557 97.1117 10.0069 96.7089 10.0069ZM84.9264 20.2045C83.9124 20.2045 83.1127 19.8618 82.5492 19.1876C81.9822 18.5094 81.6954 17.5432 81.6954 16.315C81.6954 15.0481 81.9824 14.0567 82.5499 13.3666C83.1132 12.6814 83.9049 12.3334 84.9039 12.3334C85.8727 12.3334 86.6439 12.6656 87.1964 13.3216C87.7517 13.9806 88.0334 14.9641 88.0334 16.2458C88.0334 17.5432 87.7684 18.54 87.2459 19.2066C86.7269 19.8685 85.9469 20.2045 84.9264 20.2045ZM85.0512 10.0069C83.1157 10.0069 81.5787 10.5842 80.4837 11.7228C79.3887 12.8616 78.8329 14.4372 78.8329 16.4069C78.8329 18.2783 79.3754 19.7822 80.4442 20.8785C81.5129 21.9748 82.9679 22.5305 84.7682 22.5305C86.6432 22.5305 88.1502 21.9453 89.2457 20.7909C90.3404 19.6378 90.8957 18.077 90.8957 16.1531C90.8957 14.2534 90.3747 12.7376 89.3472 11.6487C88.3189 10.5592 86.8734 10.0069 85.0512 10.0069ZM74.5912 12.364V10.2948H71.8309V22.2424H74.5909V16.1305C74.5909 15.0912 74.8224 14.2374 75.2792 13.5926C75.7299 12.9555 76.3309 12.6325 77.0642 12.6325C77.3129 12.6325 77.5919 12.6742 77.8942 12.757C78.1934 12.8389 78.4102 12.928 78.5379 13.0217L78.6539 13.1075V10.2744L78.6089 10.2548C78.3522 10.1436 77.9884 10.0876 77.5284 10.0876C76.8347 10.0876 76.2139 10.3144 75.6824 10.7611C75.2157 11.1538 74.8782 11.6925 74.6204 12.364H74.5912ZM66.8879 10.0069C65.6217 10.0069 64.4919 10.2836 63.5312 10.8285C62.5687 11.3745 61.8239 12.1547 61.3174 13.1462C60.8132 14.1356 60.5572 15.2912 60.5572 16.58C60.5572 17.7086 60.8054 18.7446 61.2959 19.6574C61.7869 20.572 62.4819 21.2876 63.3614 21.7839C64.2399 22.2795 65.2552 22.5308 66.3789 22.5308C67.6907 22.5308 68.8107 22.2637 69.7089 21.7373L69.7449 21.716V19.1412L69.6292 19.2275C69.2159 19.5323 68.7609 19.7735 68.2787 19.9433C67.7907 20.1166 67.3462 20.2042 66.9562 20.2042C65.8729 20.2042 65.0037 19.8593 64.3724 19.1792C63.7399 18.4977 63.4192 17.5414 63.4192 16.3377C63.4192 15.1265 63.7537 14.1455 64.4127 13.4213C65.0699 12.6997 65.9409 12.3337 67.0017 12.3337C67.9089 12.3337 68.7929 12.6465 69.6292 13.2643L69.7449 13.3498V10.6369L69.7077 10.6155C69.3927 10.436 68.9637 10.2879 68.4307 10.1756C67.9002 10.0636 67.3812 10.0069 66.8879 10.0069ZM58.6562 10.2948H55.8957V22.2424H58.6562V10.2948ZM57.3042 5.20512C56.8499 5.20512 56.4537 5.36268 56.1282 5.6745C55.8012 5.98759 55.6352 6.38162 55.6352 6.84642C55.6352 7.3041 55.7992 7.69075 56.1227 7.99544C56.4444 8.29912 56.8419 8.45312 57.3042 8.45312C57.7662 8.45312 58.1652 8.29912 58.4907 7.99595C58.8182 7.69075 58.9844 7.3041 58.9844 6.84642C58.9844 6.39792 58.8227 6.0077 58.5042 5.68722C58.1859 5.36726 57.7819 5.20512 57.3042 5.20512ZM50.4172 9.41352V22.2421H53.2342V5.5709H49.3354L44.3797 17.9538L39.5707 5.5709H35.5132V22.2424H38.1604V9.41224H38.2514L43.3297 22.2424H45.3272L50.3262 9.41326L50.4172 9.41352Z" fill="#706D6E"/>
<path d="M12.9847 13.2208H0V0H12.9847V13.2208Z" fill="#F1511B"/>
<path d="M27.3217 13.2208H14.3369V0H27.3217V13.2208Z" fill="#80CC28"/>
<path d="M12.9845 27.8236H0V14.6028H12.9845V27.8236Z" fill="#00ADEF"/>
<path d="M27.3217 27.8236H14.3369V14.6028H27.3217V27.8236Z" fill="#FBBC09"/>
</svg>
