<svg width="128" height="42" viewBox="0 0 128 42" fill="none" xmlns="http://www.w3.org/2000/svg">
<path d="M124.013 25.6679L127.564 28.0351C126.412 29.7326 123.655 32.6451 118.89 32.6451C112.972 32.6451 108.564 28.0664 108.564 22.2416C108.564 16.0434 113.018 11.8384 118.391 11.8384C123.795 11.8384 126.443 16.1366 127.3 18.4571L127.767 19.6409L113.844 25.4031C114.903 27.4901 116.554 28.5491 118.89 28.5491C121.226 28.5491 122.845 27.3966 124.013 25.6679ZM113.096 21.9149L122.394 18.0524C121.88 16.7599 120.354 15.8411 118.531 15.8411C116.211 15.8411 112.987 17.8969 113.096 21.9149Z" fill="#FF302F"/>
<path d="M101.852 1.23267H106.337V31.6952H101.852V1.23267Z" fill="#20B15A"/>
<path d="M94.781 12.6482H99.1105V31.15C99.1105 38.8277 94.5785 41.9892 89.221 41.9892C84.1753 41.9892 81.1385 38.5942 80.0015 35.8377L83.9728 34.1867C84.689 35.8842 86.4178 37.8935 89.221 37.8935C92.6628 37.8935 94.781 35.7597 94.781 31.773V30.278H94.6253C93.5973 31.5237 91.635 32.645 89.1433 32.645C83.9415 32.645 79.1758 28.113 79.1758 22.273C79.1758 16.4015 83.9415 11.823 89.1433 11.823C91.6195 11.823 93.5973 12.9287 94.6253 14.1435H94.781V12.6482ZM95.0923 22.273C95.0923 18.5975 92.6473 15.9187 89.5325 15.9187C86.3865 15.9187 83.739 18.5975 83.739 22.273C83.739 25.9015 86.3865 28.5335 89.5325 28.5335C92.6475 28.5492 95.0925 25.9015 95.0925 22.273" fill="#3686F7"/>
<path d="M54.5536 22.1951C54.5536 28.1911 49.8816 32.5984 44.1503 32.5984C38.4193 32.5984 33.7471 28.1756 33.7471 22.1951C33.7471 16.1681 38.4193 11.7764 44.1503 11.7764C49.8816 11.7764 54.5536 16.1681 54.5536 22.1951ZM50.0061 22.1951C50.0061 18.4576 47.2961 15.8876 44.1503 15.8876C41.0046 15.8876 38.2946 18.4576 38.2946 22.1951C38.2946 25.9016 41.0046 28.5026 44.1503 28.5026C47.2963 28.5026 50.0061 25.9016 50.0061 22.1951Z" fill="#FF302F"/>
<path d="M77.2762 22.2416C77.2762 28.2376 72.604 32.6449 66.873 32.6449C61.1417 32.6449 56.4697 28.2374 56.4697 22.2416C56.4697 16.2146 61.1417 11.8384 66.873 11.8384C72.604 11.8384 77.2762 16.1991 77.2762 22.2416ZM72.713 22.2416C72.713 18.5041 70.0032 15.9341 66.8572 15.9341C63.7112 15.9341 61.0015 18.5041 61.0015 22.2416C61.0015 25.9481 63.7115 28.5491 66.8572 28.5491C70.0187 28.5491 72.713 25.9326 72.713 22.2416Z" fill="#FFBA40"/>
<path d="M16.647 28.082C10.1215 28.082 5.01355 22.818 5.01355 16.2925C5.01355 9.7672 10.1215 4.5032 16.647 4.5032C20.1668 4.5032 22.7363 5.8892 24.6363 7.6647L27.7668 4.53445C25.1193 1.99595 21.584 0.0644531 16.647 0.0644531C7.7078 0.0647031 0.185547 7.35345 0.185547 16.2925C0.185547 25.2315 7.7078 32.5205 16.647 32.5205C21.475 32.5205 25.1193 30.932 27.9693 27.973C30.897 25.045 31.8003 20.9335 31.8003 17.6007C31.8003 16.5572 31.6758 15.4827 31.5355 14.6885H16.647V19.018H27.2528C26.9413 21.728 26.0848 23.5812 24.8233 24.8425C23.297 26.3845 20.8833 28.082 16.647 28.082Z" fill="#3686F7"/>
</svg>
