<svg width="46" height="46" viewBox="0 0 46 46" fill="none" xmlns="http://www.w3.org/2000/svg">
<path d="M42.707 18.8235C43.2191 17.2745 43.3958 15.6342 43.2253 14.0117C43.0548 12.3891 42.541 10.8214 41.718 9.4127C40.4942 7.28483 38.6268 5.60018 36.3845 4.60133C34.1423 3.60247 31.6409 3.34093 29.2405 3.85437C27.8771 2.33765 26.1387 1.20631 24.1998 0.573936C22.2609 -0.0584409 20.1898 -0.169595 18.1943 0.251633C16.1989 0.672861 14.3494 1.61165 12.8315 2.97373C11.3136 4.33582 10.1808 6.07326 9.54674 8.01162C7.94818 8.34125 6.43809 9.00739 5.11687 9.96575C3.79566 10.9241 2.69358 12.1527 1.88391 13.57C0.648734 15.6955 0.121036 18.1586 0.377007 20.6036C0.632979 23.0485 1.65937 25.3489 3.30799 27.1725C2.79139 28.7206 2.61136 30.3612 2.77994 31.9845C2.94852 33.6078 3.46181 35.1764 4.28549 36.5853C5.50979 38.715 7.37879 40.4009 9.62303 41.3998C11.8673 42.3988 14.3708 42.6593 16.7726 42.1436C17.8571 43.3627 19.1886 44.3371 20.6786 45.002C22.1687 45.6669 23.7832 46.0071 25.4148 46C27.8749 46.001 30.2718 45.2209 32.2601 43.7721C34.2483 42.3233 35.7252 40.2806 36.4778 37.9385C38.076 37.6086 39.5858 36.9423 40.9066 35.984C42.2275 35.0256 43.3293 33.7971 44.1387 32.3801C45.3592 30.2579 45.878 27.8043 45.6208 25.3697C45.3637 22.9351 44.3439 20.644 42.707 18.8235ZM25.4148 42.9908C23.4005 42.9935 21.4492 42.2879 19.9025 40.9975L20.1727 40.8422L29.3325 35.556C29.5594 35.4215 29.7478 35.2307 29.8795 35.002C30.0111 34.7734 30.0815 34.5146 30.0838 34.2508V21.3382L33.9555 23.5769C33.9747 23.5864 33.9914 23.6005 34.0041 23.6178C34.0167 23.6352 34.0251 23.6553 34.0283 23.6765V34.3773C34.0233 36.6602 33.1141 38.8481 31.4999 40.4624C29.8857 42.0766 27.6977 42.9857 25.4148 42.9908ZM6.89983 35.0826C5.88878 33.3377 5.52567 31.2921 5.87441 29.3058L6.14658 29.4687L15.314 34.7568C15.5406 34.8899 15.7987 34.9601 16.0615 34.9601C16.3243 34.9601 16.5824 34.8899 16.809 34.7568L28.0081 28.2995V32.7692C28.0073 32.7925 28.0012 32.8153 27.9902 32.8359C27.9792 32.8565 27.9637 32.8743 27.9448 32.888L18.6682 38.2375C16.6886 39.3771 14.3379 39.6849 12.1316 39.0935C9.92541 38.502 8.04388 37.0596 6.89983 35.0826ZM4.48483 15.134C5.50444 13.3791 7.11021 12.0401 9.01966 11.3524V22.2333C9.01679 22.4962 9.08421 22.7551 9.21495 22.9833C9.3457 23.2114 9.53502 23.4004 9.76333 23.5309L20.9087 29.9594L17.0371 32.198C17.0159 32.2085 16.9926 32.214 16.969 32.214C16.9454 32.214 16.9221 32.2085 16.901 32.198L7.64349 26.8582C5.6669 25.7133 4.22463 23.8318 3.63259 21.6256C3.04054 19.4195 3.347 17.0686 4.48483 15.088V15.134ZM36.2957 22.5227L25.1158 16.031L28.9779 13.8C28.9991 13.7895 29.0223 13.784 29.046 13.784C29.0696 13.784 29.0928 13.7895 29.114 13.8L38.3715 19.1494C39.7878 19.9657 40.9425 21.1683 41.7008 22.6165C42.4591 24.0647 42.7896 25.6988 42.6537 27.3279C42.5179 28.9569 41.9212 30.5137 40.9335 31.8163C39.9458 33.1189 38.6078 34.1135 37.0758 34.684V23.8011C37.0678 23.5387 36.9917 23.2828 36.8549 23.0587C36.7181 22.8346 36.5255 22.6499 36.2957 22.5227ZM40.1482 16.7286L39.878 16.5657L30.7278 11.2335C30.4994 11.1005 30.2398 11.0305 29.9755 11.0305C29.7112 11.0305 29.4516 11.1005 29.2232 11.2335L18.0337 17.6908V13.2192C18.0322 13.1968 18.0363 13.1743 18.0456 13.1539C18.055 13.1335 18.0694 13.1157 18.0874 13.1023L27.3449 7.76054C28.7639 6.94389 30.386 6.54799 32.0217 6.61911C33.6574 6.69023 35.239 7.22542 36.5818 8.16214C37.9246 9.09887 38.973 10.3984 39.6045 11.9089C40.2361 13.4194 40.4247 15.0785 40.1482 16.6922V16.7286ZM15.9216 24.654L12.0499 22.423C12.0304 22.4114 12.0138 22.3955 12.0012 22.3766C11.9886 22.3577 11.9804 22.3363 11.9771 22.3138V11.6437C11.9803 10.0071 12.4491 8.40511 13.3288 7.02495C14.2084 5.64479 15.4626 4.54341 16.9448 3.84942C18.427 3.15544 20.0761 2.8975 21.6995 3.10575C23.3228 3.31399 24.8534 3.97981 26.1125 5.02545L25.8403 5.17879L16.6825 10.465C16.4552 10.5993 16.2664 10.79 16.1345 11.0187C16.0025 11.2473 15.9318 11.5062 15.9292 11.7702L15.9216 24.654ZM18.0242 20.1211L23.0113 17.2461L28.0081 20.1211V25.8692L23.0305 28.7442L18.0337 25.8692L18.0242 20.1211Z" fill="white"/>
</svg>
