<svg width="67" height="67" viewBox="0 0 67 67" fill="none" xmlns="http://www.w3.org/2000/svg">
<path fill-rule="evenodd" clip-rule="evenodd" d="M33.3248 62.4843C37.7959 62.4843 45.444 56.6524 45.444 33.3249C45.444 9.9974 37.7959 4.16553 33.3248 4.16553C28.8537 4.16553 21.207 10.3904 21.207 33.3249C21.207 56.2594 28.8537 62.4843 33.3248 62.4843Z" stroke="white" stroke-width="2" stroke-linecap="round" stroke-linejoin="round"/>
<path fill-rule="evenodd" clip-rule="evenodd" d="M7.08881 48.5988C9.32437 52.5034 18.3957 56.1261 39.3849 43.9069C60.3741 31.6877 61.7987 21.9554 59.5618 18.0523C57.3263 14.1463 47.9022 10.7291 27.2671 22.7427C6.63059 34.7564 4.85326 44.6942 7.08881 48.5988Z" stroke="white" stroke-width="2" stroke-linecap="round" stroke-linejoin="round"/>
<path fill-rule="evenodd" clip-rule="evenodd" d="M7.08853 18.0511C4.85298 21.9556 6.27624 31.6879 27.2668 43.9071C48.256 56.1263 57.326 52.5036 59.5615 48.6004C61.7971 44.6944 60.0197 34.7566 39.3846 22.7429C18.7495 10.7293 9.32409 14.1465 7.08853 18.0511Z" stroke="white" stroke-width="2" stroke-linecap="round" stroke-linejoin="round"/>
</svg>
