<svg width="67" height="67" viewBox="0 0 67 67" fill="none" xmlns="http://www.w3.org/2000/svg">
<path d="M33.325 52.0703C30.9191 52.0724 28.5503 51.4783 26.4302 50.341C24.3101 49.2037 22.5049 47.5588 21.176 45.5532L24.6459 43.2475C25.5958 44.6799 26.8855 45.855 28.3999 46.6678C29.9142 47.4807 31.6063 47.9061 33.325 47.9061C35.0437 47.9061 36.7358 47.4807 38.2501 46.6678C39.7645 45.855 41.0542 44.6799 42.0041 43.2475L45.474 45.5532C44.1451 47.5588 42.3399 49.2037 40.2198 50.341C38.0998 51.4783 35.7309 52.0724 33.325 52.0703ZM41.6563 29.1594C40.8324 29.1594 40.027 29.4037 39.342 29.8614C38.6569 30.3192 38.123 30.9697 37.8077 31.7309C37.4924 32.4921 37.4099 33.3296 37.5707 34.1377C37.7314 34.9457 38.1281 35.688 38.7107 36.2706C39.2933 36.8531 40.0355 37.2499 40.8436 37.4106C41.6516 37.5713 42.4892 37.4888 43.2504 37.1736C44.0115 36.8583 44.6621 36.3243 45.1198 35.6393C45.5776 34.9543 45.8219 34.1489 45.8219 33.325C45.8274 32.7764 45.7235 32.2322 45.5161 31.7243C45.3088 31.2164 45.0021 30.755 44.6142 30.3671C44.2263 29.9791 43.7648 29.6725 43.2569 29.4651C42.749 29.2578 42.2048 29.1538 41.6563 29.1594ZM24.9938 29.1594C24.1699 29.1594 23.3645 29.4037 22.6795 29.8614C21.9944 30.3192 21.4605 30.9697 21.1452 31.7309C20.8299 32.4921 20.7474 33.3296 20.9082 34.1377C21.0689 34.9457 21.4656 35.688 22.0482 36.2706C22.6308 36.8531 23.373 37.2499 24.1811 37.4106C24.9891 37.5713 25.8267 37.4888 26.5879 37.1736C27.349 36.8583 27.9996 36.3243 28.4573 35.6393C28.9151 34.9543 29.1594 34.1489 29.1594 33.325C29.1649 32.7764 29.061 32.2322 28.8536 31.7243C28.6463 31.2164 28.3396 30.755 27.9517 30.3671C27.5638 29.9791 27.1023 29.6725 26.5944 29.4651C26.0865 29.2578 25.5423 29.1538 24.9938 29.1594Z" fill="white"/>
<path d="M62.4848 33.3249V29.1593H58.3191V20.828C58.3164 18.6193 57.4377 16.5018 55.8759 14.94C54.3141 13.3782 52.1966 12.4995 49.9879 12.4968H45.8223V4.16553H41.6566V12.4968H24.9941V4.16553H20.8285V12.4968H16.6629C14.4542 12.4995 12.3367 13.3782 10.7749 14.94C9.21304 16.5018 8.3344 18.6193 8.33164 20.828V29.1593H4.16602V33.3249H8.33164V43.739H4.16602V47.9046H8.33164V54.153C8.3344 56.3618 9.21304 58.4793 10.7749 60.0411C12.3367 61.6029 14.4542 62.4815 16.6629 62.4843H49.9879C52.1966 62.4815 54.3141 61.6029 55.8759 60.0411C57.4377 58.4793 58.3164 56.3618 58.3191 54.153V47.9046H62.4848V43.739H58.3191V33.3249H62.4848ZM54.1535 54.153C54.1535 55.2578 53.7146 56.3174 52.9334 57.0986C52.1522 57.8798 51.0927 58.3187 49.9879 58.3187H16.6629C15.5581 58.3187 14.4986 57.8798 13.7173 57.0986C12.9361 56.3174 12.4973 55.2578 12.4973 54.153V20.828C12.4973 19.7232 12.9361 18.6637 13.7173 17.8825C14.4986 17.1013 15.5581 16.6624 16.6629 16.6624H49.9879C51.0927 16.6624 52.1522 17.1013 52.9334 17.8825C53.7146 18.6637 54.1535 19.7232 54.1535 20.828V54.153Z" fill="white"/>
</svg>
