<svg width="67" height="67" viewBox="0 0 67 67" fill="none" xmlns="http://www.w3.org/2000/svg">
<path d="M52.7646 26.7156C52.7646 33.8805 49.2378 39.393 43.8724 43.0226C42.6227 43.8669 41.9979 44.289 41.6896 44.7722C41.3842 45.2498 41.2759 45.883 41.0676 47.1438L40.9009 48.1241C40.5344 50.3402 40.3483 51.4483 39.5707 52.1065C38.7931 52.7646 37.6712 52.7646 35.4245 52.7646H28.1708C25.9241 52.7646 24.8022 52.7646 24.0246 52.1065C23.247 51.4483 23.0637 50.3402 22.6916 48.1241L22.5305 47.1438C22.3195 45.8858 22.2167 45.2554 21.9113 44.7777C21.6058 44.3001 20.9782 43.8724 19.7257 43.0171C14.4187 39.3874 11.1084 33.8777 11.1084 26.7156C11.1084 15.0324 20.4338 5.55421 31.9365 5.55421C33.3358 5.55273 34.7316 5.69417 36.1021 5.97633" stroke="white" stroke-width="1.5" stroke-linecap="round" stroke-linejoin="round"/>
<path d="M37.4911 52.7646V55.5417C37.4911 58.1605 37.4911 59.4685 36.6775 60.2822C35.8638 61.0959 34.5558 61.0959 31.937 61.0959C29.3182 61.0959 28.0102 61.0959 27.1965 60.2822C26.3828 59.4685 26.3828 58.1605 26.3828 55.5417V52.7646M45.8224 5.5542L46.5389 7.48983C47.4775 10.0281 47.9469 11.2972 48.8716 12.222C49.7992 13.1495 51.0683 13.6188 53.6066 14.5575L55.5422 15.274L53.6066 15.9905C51.0683 16.9291 49.7992 17.3985 48.8744 18.3232C47.9469 19.2508 47.4775 20.5199 46.5389 23.0582L45.8224 24.9938L45.1059 23.0582C44.1673 20.5199 43.6979 19.2508 42.7732 18.326C41.8456 17.3985 40.5765 16.9291 38.0382 15.9905L36.1026 15.274L38.0382 14.5575C40.5765 13.6188 41.8456 13.1495 42.7704 12.2248C43.6979 11.2972 44.1673 10.0281 45.1059 7.48983L45.8224 5.5542Z" stroke="white" stroke-width="1.5" stroke-linecap="round" stroke-linejoin="round"/>
</svg>
