<svg width="46" height="46" viewBox="0 0 46 46" fill="none" xmlns="http://www.w3.org/2000/svg">
<path fill-rule="evenodd" clip-rule="evenodd" d="M40.89 9.81134C34.5688 7.013 28.3933 6.12367 22.9998 6.16584C17.6044 6.12367 11.427 7.013 5.10773 9.81134C4.35448 8.42367 4.0459 7.58417 4.0459 7.58417C10.9555 4.80692 17.4261 3.85625 22.9998 3.83325C28.5735 3.85625 35.0441 4.80692 41.9537 7.58417C41.9537 7.58417 41.7352 8.2665 40.89 9.81134ZM28.3071 11.8775L22.9998 42.1666L17.6523 11.8718C12.6326 11.8756 11.0398 12.4391 10.8098 14.7372C10.8098 14.7372 7.41731 13.453 5.70765 10.8463C12.3815 7.703 19.086 7.56309 19.086 7.56309L22.9998 12.3969L26.9079 7.56309C26.9079 7.56309 33.6124 7.70492 40.2862 10.8463C38.5766 13.453 35.186 14.7372 35.186 14.7372C34.956 12.4391 33.3613 11.8775 28.3051 11.8775" fill="#F24822"/>
</svg>
