<svg width="48" height="48" viewBox="0 0 48 48" fill="none" xmlns="http://www.w3.org/2000/svg">
<path d="M25.4173 1.3868C24.9064 1.08747 24.325 0.929688 23.7328 0.929688C23.1407 0.929688 22.5592 1.08747 22.0483 1.3868L2.02098 13.1166C1.51962 13.4113 1.1041 13.832 0.815718 14.337C0.527338 14.8421 0.37614 15.4137 0.377151 15.9953C0.378161 16.5768 0.531346 17.148 0.82148 17.652C1.11161 18.156 1.52859 18.5753 2.03098 18.8682L22.055 30.5381C22.5643 30.8349 23.1433 30.9913 23.7328 30.9913C24.3223 30.9913 24.9013 30.8349 25.4106 30.5381L45.4346 18.8682C45.9375 18.5749 46.3547 18.155 46.6448 17.6504C46.9348 17.1457 47.0877 16.5738 47.088 15.9917C47.0883 15.4096 46.9362 14.8376 46.6467 14.3325C46.3572 13.8275 45.9405 13.4072 45.438 13.1133L25.4173 1.3868ZM22.0483 5.24897C22.5588 4.95027 23.1397 4.79284 23.7311 4.79284C24.3226 4.79284 24.9035 4.95027 25.414 5.24897L43.7552 15.9891L25.4106 26.6826C24.9013 26.9794 24.3223 27.1358 23.7328 27.1358C23.1433 27.1358 22.5643 26.9794 22.055 26.6826L3.70715 15.9891L22.0483 5.24897ZM0.641397 23.1569L22.095 35.23C22.5936 35.5103 23.1559 35.6575 23.7278 35.6575C24.2998 35.6575 24.8621 35.5103 25.3607 35.23L46.8142 23.1569C47.1367 23.9049 47.174 24.745 46.9192 25.5186C46.6644 26.2922 46.1351 26.9458 45.4313 27.3557L25.404 39.0255C24.895 39.3217 24.3167 39.4778 23.7278 39.4778C23.139 39.4778 22.5606 39.3217 22.0517 39.0255L2.02432 27.3557C1.3205 26.9458 0.791198 26.2922 0.536398 25.5186C0.281598 24.745 0.31895 23.9049 0.641397 23.1569ZM0.641397 31.3312L22.095 43.4009C22.5936 43.6811 23.1559 43.8283 23.7278 43.8283C24.2998 43.8283 24.8621 43.6811 25.3607 43.4009L46.8142 31.3312C47.1367 32.0791 47.174 32.9192 46.9192 33.6929C46.6644 34.4665 46.1351 35.12 45.4313 35.5299L25.404 47.1997C24.895 47.4959 24.3167 47.652 23.7278 47.652C23.139 47.652 22.5606 47.4959 22.0517 47.1997L2.02432 35.5299C1.3205 35.12 0.791198 34.4665 0.536398 33.6929C0.281598 32.9192 0.31895 32.0791 0.641397 31.3312Z" fill="white"/>
</svg>
