<svg width="54" height="41" viewBox="0 0 54 41" fill="none" xmlns="http://www.w3.org/2000/svg">
<path fill-rule="evenodd" clip-rule="evenodd" d="M16.6157 20.2599C16.6157 17.2747 17.7098 14.4119 19.6573 12.301C21.6048 10.1902 24.2462 9.00439 27.0003 9.00439C29.7545 9.00439 32.3959 10.1902 34.3434 12.301C36.2909 14.4119 37.385 17.2747 37.385 20.2599C37.385 23.245 36.2909 26.1079 34.3434 28.2187C32.3959 30.3295 29.7545 31.5154 27.0003 31.5154C24.2462 31.5154 21.6048 30.3295 19.6573 28.2187C17.7098 26.1079 16.6157 23.245 16.6157 20.2599ZM27.0003 13.5066C25.3478 13.5066 23.763 14.2181 22.5945 15.4846C21.426 16.7511 20.7696 18.4688 20.7696 20.2599C20.7696 22.051 21.426 23.7687 22.5945 25.0352C23.763 26.3017 25.3478 27.0132 27.0003 27.0132C28.6528 27.0132 30.2377 26.3017 31.4062 25.0352C32.5747 23.7687 33.2311 22.051 33.2311 20.2599C33.2311 18.4688 32.5747 16.7511 31.4062 15.4846C30.2377 14.2181 28.6528 13.5066 27.0003 13.5066Z" fill="white"/>
<path fill-rule="evenodd" clip-rule="evenodd" d="M5.74062 16.1959C4.58031 18.0088 4.15385 19.4285 4.15385 20.2599C4.15385 21.0913 4.58031 22.511 5.74062 24.3238C6.86492 26.0737 8.532 27.9736 10.6422 29.7295C14.8708 33.2472 20.6668 36.0175 27 36.0175C33.3332 36.0175 39.1292 33.2472 43.3578 29.7295C45.468 27.9736 47.1351 26.0737 48.2594 24.3238C49.4197 22.511 49.8462 21.0913 49.8462 20.2599C49.8462 19.4285 49.4197 18.0088 48.2594 16.1959C47.1351 14.446 45.468 12.5461 43.3578 10.7903C39.1292 7.27254 33.3332 4.50219 27 4.50219C20.6668 4.50219 14.8708 7.27254 10.6422 10.7903C8.532 12.5461 6.86492 14.446 5.74062 16.1959ZM8.11108 7.21852C12.9046 3.23257 19.5674 0 27 0C34.4326 0 41.0954 3.23257 45.8862 7.21852C48.2871 9.21449 50.2698 11.4416 51.6711 13.6296C53.0335 15.7577 54 18.0898 54 20.2599C54 22.4299 53.0308 24.7621 51.6711 26.8901C50.2698 29.0782 48.2871 31.3022 45.8889 33.3012C41.0982 37.2872 34.4326 40.5197 27 40.5197C19.5674 40.5197 12.9046 37.2872 8.11385 33.3012C5.71292 31.3052 3.73015 29.0782 2.32892 26.8901C0.969231 24.7621 0 22.4299 0 20.2599C0 18.0898 0.969231 15.7577 2.32892 13.6296C3.73015 11.4416 5.71292 9.21749 8.11108 7.21852Z" fill="white"/>
</svg>
