<svg width="53" height="53" viewBox="0 0 53 53" fill="none" xmlns="http://www.w3.org/2000/svg">
<path d="M24.5974 0.588867H28.756L28.8795 2.61949C29.2254 8.25596 31.6205 13.5714 35.6135 17.5645C39.6066 21.5576 44.9221 23.9526 50.5585 24.2985L52.5868 24.422V28.5782L50.5585 28.7017C44.9221 29.0476 39.6066 31.4427 35.6135 35.4357C31.6205 39.4288 29.2254 44.7443 28.8795 50.3807L28.756 52.4114H24.5998L24.4763 50.3807C24.1304 44.7443 21.7354 39.4288 17.7423 35.4357C13.7492 31.4427 8.43376 29.0476 2.79729 28.7017L0.769043 28.5806V24.422L2.79729 24.2985C8.43376 23.9526 13.7492 21.5576 17.7423 17.5645C21.7354 13.5714 24.1304 8.25596 24.4763 2.61949L24.5974 0.588867ZM26.6779 11.8939C23.8877 18.4727 18.6505 23.7099 12.0717 26.5001C18.6505 29.2903 23.8877 34.5276 26.6779 41.1064C29.4681 34.5276 34.7054 29.2903 41.2842 26.5001C34.7054 23.7099 29.4681 18.4727 26.6779 11.8939Z" fill="white"/>
</svg>
